<svg xmlns="http://www.w3.org/2000/svg" width="25" height="25" viewBox="0 0 25 25" fill="none">
  <path d="M12.173 7.43511C11.297 7.43511 9.94101 6.43911 8.51301 6.47511C6.62901 6.49911 4.90101 7.56711 3.92901 9.25911C1.97301 12.6551 3.42501 17.6711 5.33301 20.4311C6.26901 21.7751 7.37301 23.2871 8.83701 23.2391C10.241 23.1791 10.769 22.3271 12.473 22.3271C14.165 22.3271 14.645 23.2391 16.133 23.2031C17.645 23.1791 18.605 21.8351 19.529 20.4791C20.597 18.9191 21.041 17.4071 21.065 17.3231C21.029 17.3111 18.125 16.1951 18.089 12.8351C18.065 10.0271 20.381 8.68311 20.489 8.62311C19.169 6.69111 17.141 6.47511 16.433 6.42711C14.585 6.28311 13.037 7.43511 12.173 7.43511ZM15.293 4.60311C16.073 3.66711 16.589 2.35911 16.445 1.06311C15.329 1.11111 13.985 1.80711 13.181 2.74311C12.461 3.57111 11.837 4.90311 12.005 6.17511C13.241 6.27111 14.513 5.53911 15.293 4.60311Z" fill="white"/>
</svg>