<svg xmlns="http://www.w3.org/2000/svg" width="129" height="81" viewBox="0 0 129 81" fill="none">
<path d="M36.839 17.1938C38.2711 18.4008 40.2358 19.8321 42.7752 20.1626C43.0821 20.202 43.3198 20.2202 43.5484 20.2202C43.8222 20.2202 44.0719 20.193 44.3126 20.1384C47.0566 19.5228 48.4857 17.4243 49.5207 15.4532C49.6712 15.1651 49.7073 14.8497 49.617 14.5889C49.5388 14.3645 49.3793 14.1886 49.1507 14.0855C48.9792 14.0097 48.8137 13.9703 48.6572 13.9703C48.4436 13.9703 48.0495 14.0461 47.8088 14.5495C47.5771 15.0347 47.3454 15.4471 47.1017 15.808C45.9614 17.5031 44.8963 18.2279 43.5394 18.2279C42.8384 18.2279 42.023 18.049 40.8947 17.6426C39.5047 17.1453 38.3734 16.0354 37.2813 14.9649C37.1429 14.8315 37.0075 14.6951 36.8691 14.5647C36.8029 14.501 36.7908 14.4555 36.7908 14.3948C36.7908 13.6822 36.7908 12.9696 36.7908 12.2478V11.9173L36.9503 12.0416C38.4486 13.2334 39.9981 14.4646 42.0711 14.7739C42.5465 14.8467 43.061 14.9104 43.5845 14.9104C44.1863 14.9104 44.7218 14.8224 45.2243 14.6405C46.8971 14.034 47.9171 12.6724 48.7385 11.5777C48.8558 11.42 48.9431 11.2532 49.0243 11.0894C49.0333 11.1652 49.0484 11.2441 49.0694 11.326L49.286 12.1569L49.8457 11.5079C49.8998 11.4442 49.957 11.3805 50.0112 11.3199C50.4474 10.8347 50.989 10.2312 50.643 9.29117C51.8525 8.4633 51.8525 7.2503 51.8555 6.1768C51.8555 6.04034 51.8555 5.90085 51.8585 5.76439C51.8585 5.67038 51.8705 5.37623 51.6599 5.15789C51.5697 5.06691 51.4102 4.95471 51.1484 4.95471C51.0913 4.95471 51.0311 4.96078 50.9649 4.96987C49.8427 5.14879 48.5128 6.45276 48.3323 7.55658L48.3263 7.58691C48.3263 7.6051 48.3202 7.62936 48.3172 7.65059C47.3785 7.73247 47.1258 8.41781 46.9392 8.92424C46.855 9.1547 46.7738 9.37304 46.6444 9.54286L45.6906 10.7922L47.1589 10.2464L47.3936 10.1585C47.3093 10.2949 47.21 10.4344 47.0987 10.58C47.0295 10.6679 46.9603 10.7559 46.8911 10.8468C46.0878 11.8839 45.3296 12.8604 43.9696 12.9453C43.7951 12.9544 43.6236 12.9605 43.4551 12.9605C42.0922 12.9605 40.9489 12.6148 39.956 11.9021C38.563 10.8984 37.4828 9.99774 36.5622 9.07283C36.3064 8.81507 36.0387 8.68164 35.7709 8.68164C35.482 8.68164 35.0819 8.83023 34.8081 9.5368L34.7118 9.78546C34.0709 11.4351 33.412 13.1394 32.705 14.786C32.0461 16.3296 31.4112 17.8579 30.8185 19.3287C30.5357 20.0292 30.2408 20.7388 29.952 21.4241C29.4706 22.5765 28.9742 23.7683 28.5229 24.96C28.2671 25.6302 27.9723 26.3095 27.6895 26.9615C27.3675 27.6984 27.0366 28.4595 26.7537 29.2328C26.3987 30.1941 25.9925 31.1615 25.6014 32.0924C25.3457 32.702 25.0809 33.3297 24.8312 33.9544C24.6446 34.4274 24.434 34.9035 24.2324 35.3675C23.9526 36.0104 23.6608 36.6745 23.4171 37.3477C22.8996 38.7609 22.3069 40.174 21.7352 41.5386C21.4072 42.321 21.0703 43.1276 20.7483 43.9282C20.1436 45.4323 19.5358 46.9364 18.9281 48.4436L18.913 48.483L18.4497 49.6232C18.0345 50.6512 17.6163 51.6793 17.195 52.7042C16.8671 53.5048 16.5361 54.3024 16.2052 55.1029C15.8983 55.8398 15.5944 56.5737 15.2905 57.3106C15.0077 57.999 14.7279 58.6934 14.4481 59.3848C14.1322 60.1641 13.8162 60.9465 13.4943 61.7259C13.2025 62.4324 12.9046 63.139 12.6067 63.8456C12.2998 64.5703 11.9839 65.3194 11.677 66.0623C11.3521 66.8508 11.0302 67.6513 10.7203 68.4277C10.5428 68.8765 10.3622 69.3223 10.1817 69.768C10.0012 70.2199 9.81765 70.6687 9.63713 71.1175C9.29714 71.9545 8.94813 72.8187 8.60815 73.6739C8.49983 73.9468 8.49682 74.2349 8.60514 74.4835C8.70443 74.711 8.88796 74.8838 9.12264 74.9748C9.249 75.0233 9.37838 75.0506 9.50174 75.0506C9.91393 75.0506 10.2509 74.7777 10.4044 74.3228C10.5518 73.8892 10.7353 73.4495 10.9098 73.0249L11.0001 72.8066C11.2107 72.2971 11.4243 71.7907 11.6379 71.2843C11.9207 70.6171 12.2096 69.9287 12.4894 69.2434C12.8294 68.4095 13.1694 67.5604 13.5003 66.7386C13.747 66.123 13.9938 65.5074 14.2435 64.8918C14.5564 64.1185 14.8723 63.3483 15.1882 62.578C15.3627 62.1565 15.5342 61.735 15.7057 61.3135C15.9374 60.7494 16.1661 60.1854 16.3977 59.6183C16.6294 59.0512 16.8581 58.4872 17.0897 57.9231C17.8299 56.1097 18.573 54.3024 19.3222 52.492C19.3733 52.3676 19.4245 52.2463 19.4756 52.122C19.6291 53.2501 20.0052 54.3539 20.6069 55.4547C21.4464 56.9831 22.5686 58.0111 24.0339 58.5903C25.1471 59.033 26.2633 59.2665 27.5932 59.4849C28.7004 59.6638 29.8617 59.7517 31.1405 59.7517C32.6839 59.7517 34.1973 59.6244 35.6054 59.4879C36.6584 59.3848 36.7999 58.7419 36.7999 58.1263C36.7878 44.7349 36.7878 31.1129 36.7878 17.9428V17.1514C36.8029 17.1635 36.8179 17.1787 36.836 17.1908L36.839 17.1938ZM34.784 57.7018C34.7569 57.7109 34.6998 57.726 34.5945 57.7382C33.5113 57.8686 32.4162 57.9353 31.333 57.9353C30.0784 57.9353 28.8117 57.8473 27.5661 57.6714C25.6646 57.4046 24.0008 57.0619 22.8755 55.5608C21.7833 54.1022 21.2929 52.7437 21.326 51.279C21.3681 49.2988 21.9518 47.5915 23.062 46.2026C24.2535 44.7167 25.5743 43.9889 27.2231 43.9161C28.583 43.8554 29.964 43.7372 31.2999 43.625C32.034 43.5643 32.7922 43.4976 33.5384 43.4461C33.7671 43.4279 33.9927 43.4218 34.2334 43.4157H34.3538L34.3899 43.4127C34.6366 43.4127 34.79 43.443 34.79 43.8858V50.5603C34.79 51.1759 34.79 51.7854 34.79 52.3949C34.79 54.0779 34.784 55.8156 34.8021 57.5259C34.8021 57.6229 34.7961 57.6775 34.793 57.7078L34.784 57.7018ZM34.7539 41.478C34.7539 41.478 34.6817 41.5326 34.3477 41.5629C33.1954 41.669 32.022 41.7448 30.8877 41.8206C29.4586 41.9146 27.9783 42.0117 26.5221 42.1663C24.9786 42.3301 23.8744 43.0549 22.8755 43.8706C25.1531 38.306 27.4277 32.7474 29.6993 27.1889L34.784 14.7618V20.8116C34.784 27.4618 34.781 34.3365 34.8021 41.0989C34.8021 41.4143 34.7599 41.4749 34.7569 41.478H34.7539Z" fill="#024CDA"/>
<path d="M54.1783 42.5999C53.0229 41.9116 51.7743 41.7994 50.5648 41.6932C50.1315 41.6538 49.6832 41.6144 49.256 41.5477C48.4436 41.4203 47.5831 41.3657 46.4609 41.3657C45.9675 41.3657 45.468 41.3779 44.9866 41.3869C44.5082 41.396 44.0148 41.4082 43.5304 41.4082C43.4251 41.4082 43.3168 41.4082 43.2115 41.4082C43.0219 41.4082 42.8625 41.3991 42.7241 41.396C42.5977 41.39 42.4894 41.3869 42.3991 41.3869C42.2336 41.3869 41.9267 41.3869 41.7071 41.6114C41.4664 41.854 41.4724 42.1784 41.4784 42.7607C41.4784 42.882 41.4784 43.0184 41.4784 43.1731C41.4754 46.5422 41.4784 49.9173 41.4784 53.2864C41.4784 54.9725 41.4784 56.6585 41.4784 58.3416V74.0741C41.4784 74.1044 41.4784 74.1378 41.4784 74.1712C41.4634 74.8807 41.7252 75.2477 42.2547 75.2598H42.2878C42.5887 75.2598 42.7692 75.1385 42.8655 75.0354C43.0971 74.7928 43.0851 74.4623 43.0761 74.2439C43.0761 74.1863 43.0701 74.1257 43.0761 74.0893C43.0851 73.9407 43.0821 73.8012 43.0791 73.6678C43.0791 73.6101 43.0791 73.5495 43.0791 73.4919V69.7862C43.0791 66.1442 43.0791 62.3778 43.064 58.6721C43.064 58.5478 43.0701 58.478 43.0761 58.4416C43.0911 58.4416 43.1122 58.4416 43.1393 58.4416C43.1663 58.4416 43.1934 58.4416 43.2235 58.4447C44.8151 58.5538 46.3736 58.6115 47.8539 58.6115C49.3342 58.6115 50.8867 58.5508 52.3249 58.4356C55.3065 58.193 57.2381 56.6282 58.0655 53.7807C58.7485 51.4305 58.6432 49.0622 57.7496 46.7393C57.0817 44.9926 55.9143 43.6431 54.1813 42.609L54.1783 42.5999ZM56.7988 52.5101C56.522 54.1507 55.5171 56.9102 51.9247 56.983C51.0432 57.0012 50.0804 57.0103 48.8979 57.0103C48.2481 57.0103 47.6012 57.0103 46.9513 57.0042C46.3014 57.0042 45.6515 56.9982 45.0017 56.9982C44.43 56.9982 43.8614 56.9982 43.2897 57.0042H43.2686C43.1603 57.0042 43.1001 56.9952 43.0701 56.9891C43.064 56.9557 43.055 56.886 43.058 56.7586C43.0821 55.0968 43.0761 53.4108 43.0731 51.7762C43.0731 51.1667 43.0731 50.5542 43.0731 49.9446V49.4897H43.067C43.067 49.0076 43.067 48.5224 43.067 48.0402C43.0701 46.433 43.0731 44.7682 43.055 43.1306C43.055 42.976 43.0731 42.9123 43.0791 42.8911C43.1001 42.882 43.1663 42.8607 43.3348 42.8577C43.5304 42.8547 43.726 42.8516 43.9215 42.8516C45.4319 42.8516 46.9694 42.9517 48.4557 43.0488C49.0755 43.0882 49.6953 43.1276 50.3151 43.164C51.2688 43.2155 52.4934 43.352 53.5073 43.9464C54.7288 44.656 55.5352 45.4747 56.0467 46.524C56.9162 48.3071 57.1689 50.3207 56.7988 52.5101Z" fill="black"/>
<path d="M97.1338 15.2197C97.1338 15.2682 97.1338 15.3167 97.1338 15.3652V57.0619C97.1338 57.2226 97.1338 57.3925 97.1488 57.5683C97.1609 57.7078 97.2541 58.1718 97.8438 58.1718H97.8829H97.913C97.913 58.1718 97.916 58.1718 97.9191 58.1718C97.9251 58.1718 97.9281 58.1718 97.9341 58.1718C97.9672 58.1718 98.0003 58.1748 98.0334 58.1748C98.4275 58.1748 98.7013 57.911 98.7134 57.5229C98.7194 57.3561 98.7194 57.1862 98.7194 57.0195V36.6048V36.1499V15.5623C98.7194 15.4896 98.7194 15.4168 98.7194 15.344C98.7194 15.2075 98.7164 15.0771 98.7194 14.9528C98.7555 14.1522 98.1628 14.0522 97.9792 14.04C97.9521 14.04 97.9281 14.04 97.907 14.04C97.6152 14.04 97.4407 14.1613 97.3444 14.2614C97.1398 14.4767 97.1247 14.7678 97.1338 14.9649C97.1368 15.0499 97.1338 15.1348 97.1338 15.2227V15.2197Z" fill="black"/>
<path d="M86.0892 14.2826H86.0501C86.02 14.2765 85.9959 14.2765 85.9718 14.2765C85.7131 14.2765 85.5536 14.3857 85.4664 14.4766C85.334 14.6131 85.2678 14.8041 85.2738 15.0376C85.2768 15.1589 85.2738 15.2772 85.2738 15.3985C85.2738 15.4622 85.2738 15.5259 85.2738 15.5896V56.9709C85.2738 57.0527 85.2738 57.1376 85.2738 57.2195C85.2738 57.3014 85.2738 57.3802 85.2738 57.4621C85.2738 57.7199 85.3731 58.1566 86.038 58.1778H86.0892C86.1102 58.1808 86.1283 58.1808 86.1494 58.1808C86.4201 58.1808 86.5826 58.0686 86.6729 57.9776C86.8053 57.8412 86.8684 57.6562 86.8624 57.4318C86.8594 57.3105 86.8624 57.1892 86.8624 57.0709C86.8624 57.0072 86.8624 56.9436 86.8624 56.8799V37.0323L86.8684 36.2984V15.7806C86.8684 15.5441 86.8654 15.2863 86.8564 14.9922C86.8474 14.6919 86.706 14.325 86.0862 14.2795L86.0892 14.2826Z" fill="black"/>
<path d="M117.936 55.4486C119.47 53.7929 120.229 51.6216 120.075 49.3351C119.861 46.2056 117.16 41.7964 111.819 41.7964C111.518 41.7964 111.208 41.8115 110.899 41.8388C107.616 42.1451 104.162 44.8501 103.732 48.8166H103.729V48.8833C103.699 49.1896 103.687 49.505 103.693 49.8264V49.8537C103.617 51.9825 104.373 53.9991 105.82 55.5335C107.363 57.165 109.536 58.1203 111.78 58.1506C111.816 58.1506 111.852 58.1506 111.888 58.1506C114.112 58.1506 116.374 57.1408 117.942 55.4486H117.936ZM112.273 56.604C112.255 56.604 112.237 56.604 112.219 56.604V56.5525L111.741 56.5798C111.636 56.5858 111.527 56.5888 111.422 56.5888C109.861 56.5888 108.269 55.8701 107.056 54.6208C105.805 53.3289 105.11 51.6307 105.146 49.9568C105.233 46.0843 107.977 43.3551 111.816 43.3187H111.885C115.685 43.3187 118.505 46.0904 118.592 49.9113C118.631 51.5913 117.924 53.3047 116.654 54.6147C115.43 55.8792 113.832 56.604 112.273 56.604Z" fill="#024CDA"/>
<path d="M72.1859 41.8207C72.1017 41.8207 72.0174 41.8176 71.9302 41.8176C67.6789 41.8176 63.936 45.5203 63.921 49.7415C63.9119 52.028 64.7604 54.1507 66.3099 55.7185C67.8504 57.2772 69.9023 58.1385 72.0836 58.1385C76.7742 58.1385 80.3456 54.6602 80.3937 50.0539C80.4148 47.8371 79.5964 45.769 78.0921 44.2376C76.5636 42.6819 74.4635 41.8237 72.1829 41.8237L72.1859 41.8207ZM78.8743 50.6422C78.6908 53.3411 75.8686 56.598 72.6402 56.598C72.4928 56.598 72.3424 56.5919 72.198 56.5798H72.1769H72.1558H72.1348H72.1107C71.9663 56.5919 71.8189 56.601 71.6744 56.601C70.134 56.601 68.5363 55.8489 67.2937 54.5328C66.0331 53.1985 65.323 51.4579 65.3983 49.8749C65.5818 46.0085 68.2866 43.3703 72.1258 43.3096C72.1619 43.3096 72.195 43.3096 72.2311 43.3096C74.1055 43.3096 75.8987 44.0859 77.1533 45.4415C78.414 46.803 79.0067 48.6013 78.8683 50.6422H78.8743Z" fill="black"/>
<path d="M120.382 67.3724C120.313 67.2511 120.166 67.0995 119.874 67.0479C119.835 67.0418 119.79 67.0358 119.751 67.0358C119.369 67.0358 119.14 67.3026 119.068 67.8273C119.062 67.8636 119.059 67.897 119.053 67.9243C118.728 69.386 118.406 70.8749 118.096 72.3123L118.084 72.376C117.885 71.8999 117.675 71.4177 117.434 70.9507C117.395 70.8749 117.353 70.7536 117.314 70.6384C117.178 70.2532 116.995 69.7256 116.474 69.7256C116.45 69.7256 116.423 69.7256 116.396 69.7317C115.821 69.8014 115.635 70.4109 115.499 70.8537C115.472 70.9386 115.448 71.0205 115.421 71.0932C115.256 71.5572 115.072 72.0273 114.883 72.5155C114.834 72.373 114.795 72.2335 114.765 72.094C114.437 70.6353 114.025 69.1434 113.544 67.6544C113.544 67.6453 113.544 67.6332 113.541 67.6211C113.465 67.06 113.095 66.9994 112.942 66.9994C112.867 66.9994 112.788 67.0115 112.707 67.0418C112.458 67.1268 112.075 67.3754 112.295 68.0729C112.71 69.4041 113.116 70.8567 113.535 72.5185C113.571 72.6641 113.607 72.8127 113.64 72.9643C113.766 73.5041 113.896 74.062 114.136 74.5958C114.142 74.6109 114.148 74.6261 114.154 74.6443C114.203 74.7747 114.344 75.1659 114.792 75.1659C114.846 75.1659 114.904 75.1598 114.961 75.1477C115.253 75.0779 115.472 74.8535 115.563 74.526C115.818 73.6193 116.116 72.8096 116.468 72.0606C116.763 72.7247 117.07 73.401 117.407 74.0499C117.425 74.0863 117.446 74.1924 117.461 74.2652C117.512 74.523 117.636 75.1265 118.249 75.1265C118.315 75.1265 118.385 75.1174 118.454 75.1022C119.047 74.9657 119.134 74.2804 119.188 73.871C119.197 73.8073 119.203 73.7436 119.212 73.6891C119.498 71.9302 119.907 70.1592 120.304 68.4459L120.358 68.2185C120.367 68.1821 120.379 68.1457 120.395 68.1093C120.455 67.9364 120.554 67.6453 120.395 67.3724H120.382Z" fill="black"/>
<path d="M99.5588 67.721C99.4685 67.6149 99.3 67.4845 99.0202 67.4754H99.0142H98.9991C98.8066 67.4754 98.6381 67.5512 98.5208 67.6877C98.3011 67.9424 98.3462 68.2821 98.3854 68.555C98.3944 68.6278 98.4064 68.7127 98.4064 68.7551C98.3884 69.959 98.3884 71.1811 98.3914 72.3668C97.4226 70.887 96.4357 69.3798 95.4669 67.8878C95.4609 67.8787 95.4549 67.8666 95.4488 67.8545C95.3977 67.7574 95.2382 67.4663 94.8802 67.4663C94.8531 67.4663 94.826 67.4663 94.796 67.4724C94.6576 67.4906 94.2123 67.6028 94.2123 68.2426C94.2123 68.4488 94.2123 68.6611 94.2123 68.8734V69.7376C94.2123 71.1568 94.2123 72.6276 94.2213 74.0711C94.2213 74.0953 94.2183 74.1196 94.2153 74.1438C94.2002 74.2955 94.1701 74.5745 94.3657 74.7958C94.45 74.8929 94.6094 75.0051 94.8712 75.0051H94.8952C95.16 74.999 95.3135 74.8807 95.3947 74.7867C95.5782 74.5714 95.5451 74.3076 95.5271 74.1651C95.5271 74.1438 95.5211 74.1226 95.5211 74.1044C95.5451 73.9437 95.5391 73.786 95.5361 73.6435C95.5361 73.5919 95.5331 73.5434 95.5331 73.4919V70.3593C96.541 71.9362 97.5189 73.4494 98.2861 74.626C98.2981 74.6472 98.3101 74.6685 98.3252 74.6927C98.4064 74.8413 98.599 75.184 99.0112 75.184C99.0954 75.184 99.1827 75.1688 99.2699 75.1385C99.6189 75.0142 99.7694 74.7261 99.7122 74.2833C99.7122 74.2621 99.7062 74.2379 99.7062 74.2197V73.8042C99.7152 72.1667 99.7242 70.4745 99.7062 68.8067C99.7062 68.7642 99.7152 68.6884 99.7242 68.6156C99.7573 68.3488 99.8055 67.9879 99.5738 67.715L99.5588 67.721Z" fill="black"/>
<path d="M106.922 67.5209C106.834 67.5149 106.744 67.5118 106.654 67.5118C104.512 67.5118 103.004 69.4981 102.992 71.2812C102.986 72.2546 103.441 73.3251 104.181 74.0772C104.611 74.5138 105.107 74.8141 105.625 74.9627L105.547 75.0415H106.034C106.139 75.0567 106.248 75.0658 106.353 75.0658C106.446 75.0658 106.543 75.0597 106.636 75.0506H106.645C108.613 75.0506 110.285 73.5101 110.297 71.6876C110.312 69.3192 108.989 67.6847 106.925 67.524L106.922 67.5209ZM106.696 73.7284H106.654L106.615 73.7375C106.543 73.7497 106.467 73.7588 106.392 73.7588C105.965 73.7588 105.496 73.5313 105.104 73.131C104.617 72.6337 104.316 71.9484 104.322 71.3358C104.337 69.95 105.369 68.8704 106.726 68.8279H106.759C107.247 68.8279 107.869 69.1524 108.345 69.6588C108.796 70.138 109.04 70.696 109.016 71.1933C108.937 72.755 108.047 73.7284 106.696 73.7315V73.7284Z" fill="black"/>
<path d="M112.181 47.6036C110.953 47.5368 109.897 48.7044 109.867 49.9537C109.837 51.2213 110.863 52.4464 111.979 52.5041C113.068 52.5586 114.272 51.2668 114.296 50.0114C114.278 48.9318 113.321 47.6672 112.181 47.6066V47.6036ZM112.042 51.9794C111.137 51.9734 110.366 51.1 110.357 50.0659C110.345 49.0501 111.224 48.019 112.072 48.0524C112.927 48.0827 113.847 49.1471 113.835 50.0932C113.826 50.9848 112.876 51.9855 112.039 51.9794H112.042Z" fill="#024CDA"/>
<path d="M111.618 48.9985V51.094C111.985 50.8059 112.298 50.5815 112.593 50.3328C112.786 50.1691 112.891 49.9628 112.65 49.7597C112.334 49.4898 112.072 49.135 111.618 48.9955V48.9985Z" fill="#024CDA"/>
</svg>