<svg xmlns="http://www.w3.org/2000/svg" width="130" height="83" viewBox="0 0 130 83" fill="none">
<path d="M36.9071 17.7253C38.3616 18.9624 40.357 20.4295 42.9361 20.7683C43.2477 20.8087 43.4891 20.8273 43.7214 20.8273C43.9995 20.8273 44.2531 20.7994 44.4975 20.7434C47.2844 20.1124 48.7358 17.9615 49.787 15.9411C49.9398 15.6458 49.9765 15.3226 49.8848 15.0552C49.8053 14.8252 49.6434 14.6449 49.4112 14.5393C49.237 14.4616 49.0689 14.4211 48.91 14.4211C48.6931 14.4211 48.2928 14.4989 48.0483 15.0148C47.813 15.5122 47.5777 15.9349 47.3302 16.3048C46.1721 18.0423 45.0904 18.7852 43.7122 18.7852C43.0002 18.7852 42.1721 18.6018 41.0262 18.1853C39.6145 17.6755 38.4655 16.5379 37.3563 15.4407C37.2157 15.3039 37.0782 15.164 36.9377 15.0304C36.8704 14.9651 36.8582 14.9185 36.8582 14.8563C36.8582 14.1259 36.8582 13.3954 36.8582 12.6556V12.3168L37.0202 12.4443C38.5419 13.6658 40.1156 14.9278 42.221 15.2448C42.7038 15.3194 43.2264 15.3847 43.758 15.3847C44.3692 15.3847 44.9131 15.2946 45.4234 15.1081C47.1224 14.4864 48.1583 13.0908 48.9925 11.9687C49.1117 11.8071 49.2003 11.6361 49.2828 11.4683C49.292 11.546 49.3073 11.6268 49.3287 11.7107L49.5487 12.5624L50.117 11.8972C50.172 11.8319 50.2301 11.7667 50.2851 11.7045C50.7282 11.2072 51.2782 10.5886 50.9268 9.62504C52.1552 8.77648 52.1552 7.53316 52.1583 6.43282C52.1583 6.29295 52.1583 6.14996 52.1613 6.01009C52.1613 5.91373 52.1735 5.61223 51.9596 5.38843C51.868 5.29518 51.706 5.18018 51.4402 5.18018C51.3821 5.18018 51.321 5.18639 51.2538 5.19572C50.114 5.37911 48.7633 6.71567 48.58 7.8471L48.5739 7.87818C48.5739 7.89683 48.5678 7.92169 48.5647 7.94345C47.6113 8.02738 47.3546 8.72985 47.1652 9.24894C47.0796 9.48517 46.9971 9.70897 46.8657 9.88303L45.8971 11.1636L47.3883 10.6042L47.6266 10.514C47.541 10.6539 47.4402 10.7969 47.3271 10.9461C47.2569 11.0362 47.1866 11.1263 47.1163 11.2196C46.3004 12.2826 45.5304 13.2835 44.1492 13.3705C43.972 13.3799 43.7978 13.3861 43.6267 13.3861C42.2424 13.3861 41.0812 13.0317 40.0728 12.3013C38.658 11.2724 37.561 10.3493 36.626 9.40124C36.3662 9.13704 36.0943 9.00027 35.8223 9.00027C35.529 9.00027 35.1226 9.15258 34.8445 9.87681L34.7467 10.1317C34.0958 11.8226 33.4266 13.5695 32.7085 15.2573C32.0393 16.8394 31.3946 18.406 30.7926 19.9135C30.5053 20.6315 30.2059 21.3589 29.9125 22.0613C29.4236 23.2425 28.9194 24.4641 28.4611 25.6856C28.2013 26.3725 27.9019 27.0688 27.6146 27.7371C27.2877 28.4924 26.9515 29.2726 26.6643 30.0652C26.3037 31.0505 25.8912 32.0421 25.4939 32.9963C25.2342 33.6211 24.9653 34.2645 24.7117 34.9048C24.5222 35.3897 24.3083 35.8777 24.1036 36.3533C23.8194 37.0122 23.523 37.693 23.2755 38.383C22.7499 39.8315 22.1479 41.2799 21.5673 42.6787C21.2343 43.4806 20.892 44.3074 20.565 45.128C19.9508 46.6697 19.3336 48.2114 18.7163 49.7563L18.7011 49.7967L18.2305 50.9654C17.8088 52.0191 17.384 53.0728 16.9562 54.1234C16.6232 54.944 16.287 55.7615 15.9509 56.5821C15.6392 57.3374 15.3306 58.0896 15.022 58.8449C14.7347 59.5505 14.4505 60.2623 14.1663 60.971C13.8455 61.7698 13.5246 62.5718 13.1977 63.3706C12.9013 64.0948 12.5988 64.8191 12.2962 65.5433C11.9846 66.2862 11.6637 67.054 11.352 67.8155C11.022 68.6236 10.695 69.4442 10.3803 70.24C10.2 70.7 10.0167 71.1569 9.83332 71.6138C9.64998 72.077 9.46358 72.537 9.28023 72.997C8.93493 73.8549 8.58047 74.7408 8.23517 75.6173C8.12517 75.8971 8.12211 76.1923 8.23212 76.4472C8.33295 76.6803 8.51935 76.8575 8.7577 76.9508C8.88604 77.0005 9.01744 77.0285 9.14272 77.0285C9.56136 77.0285 9.9036 76.7487 10.0594 76.2825C10.2092 75.838 10.3956 75.3873 10.5728 74.9521L10.6645 74.7283C10.8784 74.2061 11.0953 73.6871 11.3123 73.168C11.5995 72.4841 11.8929 71.7786 12.1771 71.0761C12.5224 70.2213 12.8677 69.351 13.2038 68.5086C13.4544 67.8776 13.7049 67.2467 13.9586 66.6157C14.2764 65.8231 14.5972 65.0336 14.9181 64.244C15.0953 63.812 15.2695 63.3799 15.4436 62.9479C15.6789 62.3697 15.9112 61.7916 16.1465 61.2104C16.3818 60.6291 16.614 60.051 16.8493 59.4728C17.601 57.614 18.3558 55.7615 19.1166 53.9059C19.1686 53.7784 19.2205 53.6541 19.2725 53.5266C19.4283 54.6829 19.8103 55.8143 20.4214 56.9427C21.274 58.5092 22.4138 59.563 23.9019 60.1566C25.0325 60.6105 26.1662 60.8498 27.5168 61.0736C28.6413 61.257 29.8209 61.3471 31.1195 61.3471C32.6871 61.3471 34.2242 61.2166 35.6543 61.0767C36.7238 60.971 36.8674 60.3121 36.8674 59.6811C36.8552 45.9548 36.8552 31.9924 36.8552 18.493V17.6817C36.8704 17.6942 36.8857 17.7097 36.904 17.7222L36.9071 17.7253ZM34.82 59.2459C34.7925 59.2552 34.7345 59.2708 34.6275 59.2832C33.5275 59.4169 32.4152 59.4852 31.3151 59.4852C30.0409 59.4852 28.7544 59.3951 27.4893 59.2148C25.5581 58.9413 23.8683 58.5901 22.7255 57.0514C21.6162 55.5564 21.1181 54.1638 21.1517 52.6625C21.1945 50.6328 21.7873 48.8828 22.9149 47.4592C24.125 45.9362 25.4664 45.1902 27.141 45.1156C28.5222 45.0534 29.9248 44.9322 31.2815 44.8172C32.0271 44.755 32.7971 44.6866 33.555 44.6338C33.7872 44.6152 34.0164 44.6089 34.2608 44.6027H34.3831L34.4197 44.5996C34.6703 44.5996 34.8261 44.6307 34.8261 45.0845V51.9259C34.8261 52.5568 34.8261 53.1816 34.8261 53.8064C34.8261 55.5315 34.82 57.3125 34.8384 59.0656C34.8384 59.1651 34.8323 59.221 34.8292 59.2521L34.82 59.2459ZM34.7895 42.6165C34.7895 42.6165 34.7161 42.6725 34.377 42.7035C33.2066 42.8123 32.0149 42.89 30.8629 42.9678C29.4114 43.0641 27.908 43.1636 26.429 43.3221C24.8614 43.4899 23.74 44.2328 22.7255 45.069C25.0386 39.3652 27.3488 33.6677 29.6559 27.9702L34.82 15.2324V21.4335C34.82 28.25 34.817 35.2965 34.8384 42.228C34.8384 42.5512 34.7956 42.6134 34.7925 42.6165H34.7895Z" fill="white"/>
<path d="M54.5173 43.7666C53.3439 43.061 52.0758 42.946 50.8474 42.8372C50.4074 42.7968 49.9521 42.7564 49.5182 42.688C48.6931 42.5575 47.8192 42.5015 46.6794 42.5015C46.1782 42.5015 45.671 42.514 45.1821 42.5233C44.6962 42.5326 44.1951 42.545 43.7031 42.545C43.5962 42.545 43.4862 42.545 43.3792 42.545C43.1867 42.545 43.0247 42.5357 42.8842 42.5326C42.7558 42.5264 42.6458 42.5233 42.5541 42.5233C42.3861 42.5233 42.0744 42.5233 41.8513 42.7533C41.6069 43.002 41.613 43.3345 41.6191 43.9313C41.6191 44.0557 41.6191 44.1955 41.6191 44.3541C41.616 47.8074 41.6191 51.2669 41.6191 54.7202C41.6191 56.4485 41.6191 58.1767 41.6191 59.9018V76.0276C41.6191 76.0587 41.6191 76.0929 41.6191 76.1271C41.6038 76.8544 41.8697 77.2305 42.4075 77.243H42.4411C42.7467 77.243 42.93 77.1186 43.0278 77.013C43.2631 76.7643 43.2509 76.4255 43.2417 76.2017C43.2417 76.1426 43.2356 76.0805 43.2417 76.0432C43.2509 75.8909 43.2478 75.7479 43.2447 75.6111C43.2447 75.5521 43.2447 75.4899 43.2447 75.4308V71.6325C43.2447 67.8994 43.2447 64.0389 43.2295 60.2406C43.2295 60.1131 43.2356 60.0416 43.2417 60.0043C43.257 60.0043 43.2784 60.0043 43.3059 60.0043C43.3334 60.0043 43.3609 60.0043 43.3914 60.0075C45.0079 60.1194 46.5908 60.1784 48.0942 60.1784C49.5976 60.1784 51.1744 60.1162 52.635 59.9981C55.6632 59.7495 57.625 58.1456 58.4653 55.2269C59.159 52.818 59.052 50.3904 58.1445 48.0094C57.4661 46.2191 56.2805 44.8359 54.5204 43.7759L54.5173 43.7666ZM57.1789 53.9245C56.8978 55.6061 55.8771 58.4347 52.2286 58.5093C51.3333 58.5279 50.3554 58.5372 49.1545 58.5372C48.4945 58.5372 47.8375 58.5372 47.1775 58.531C46.5174 58.531 45.8574 58.5248 45.1974 58.5248C44.6168 58.5248 44.0392 58.5248 43.4586 58.531H43.4373C43.3272 58.531 43.2661 58.5217 43.2356 58.5155C43.2295 58.4813 43.2203 58.4098 43.2234 58.2792C43.2478 56.5759 43.2417 54.8477 43.2386 53.1723C43.2386 52.5475 43.2386 51.9197 43.2386 51.2949V50.8287H43.2325C43.2325 50.3344 43.2325 49.8371 43.2325 49.3429C43.2356 47.6955 43.2386 45.989 43.2203 44.3106C43.2203 44.152 43.2386 44.0868 43.2447 44.065C43.2661 44.0557 43.3334 44.0339 43.5045 44.0308C43.7031 44.0277 43.9017 44.0246 44.1004 44.0246C45.6343 44.0246 47.1958 44.1272 48.7053 44.2266C49.3348 44.267 49.9643 44.3074 50.5938 44.3447C51.5625 44.3976 52.8061 44.5375 53.8359 45.1467C55.0765 45.874 55.8955 46.7133 56.4149 47.7887C57.2981 49.6164 57.5547 51.6803 57.1789 53.9245Z" fill="white"/>
<path d="M98.1441 15.7018C98.1441 15.7515 98.1441 15.8013 98.1441 15.851V58.5901C98.1441 58.7548 98.1441 58.9289 98.1593 59.1092C98.1716 59.2522 98.2663 59.7277 98.8652 59.7277H98.9049H98.9355C98.9355 59.7277 98.9386 59.7277 98.9416 59.7277C98.9477 59.7277 98.9508 59.7277 98.9569 59.7277C98.9905 59.7277 99.0241 59.7308 99.0577 59.7308C99.458 59.7308 99.7361 59.4604 99.7483 59.0626C99.7544 58.8916 99.7544 58.7175 99.7544 58.5466V37.6215V37.1553V16.053C99.7544 15.9784 99.7544 15.9038 99.7544 15.8292C99.7544 15.6894 99.7514 15.5557 99.7544 15.4283C99.7911 14.6077 99.1891 14.5051 99.0027 14.4927C98.9752 14.4927 98.9508 14.4927 98.9294 14.4927C98.633 14.4927 98.4557 14.617 98.358 14.7196C98.1502 14.9403 98.1349 15.2387 98.1441 15.4407C98.1471 15.5277 98.1441 15.6148 98.1441 15.7049V15.7018Z" fill="white"/>
<path d="M86.9264 14.7413H86.8867C86.8561 14.7351 86.8317 14.7351 86.8072 14.7351C86.5444 14.7351 86.3825 14.847 86.2938 14.9403C86.1594 15.0801 86.0922 15.276 86.0983 15.5153C86.1013 15.6396 86.0983 15.7608 86.0983 15.8852C86.0983 15.9505 86.0983 16.0157 86.0983 16.081V58.4968C86.0983 58.5807 86.0983 58.6678 86.0983 58.7517C86.0983 58.8356 86.0983 58.9165 86.0983 59.0004C86.0983 59.2646 86.1991 59.7122 86.8744 59.7339H86.9264C86.9478 59.737 86.9661 59.737 86.9875 59.737C87.2625 59.737 87.4275 59.622 87.5192 59.5288C87.6536 59.3889 87.7178 59.1993 87.7117 58.9693C87.7087 58.845 87.7117 58.7206 87.7117 58.5994C87.7117 58.5341 87.7117 58.4689 87.7117 58.4036V38.0598L87.7178 37.3076V16.2768C87.7178 16.0344 87.7148 15.7702 87.7056 15.4687C87.6964 15.1609 87.5528 14.7848 86.9233 14.7382L86.9264 14.7413Z" fill="white"/>
<path d="M119.271 56.9365C120.83 55.2394 121.6 53.0138 121.444 50.6702C121.227 47.4624 118.483 42.9429 113.059 42.9429C112.753 42.9429 112.439 42.9585 112.124 42.9864C108.79 43.3004 105.282 46.073 104.845 50.1386H104.842V50.207C104.812 50.521 104.799 50.8442 104.805 51.1737V51.2017C104.729 53.3837 105.496 55.4507 106.966 57.0235C108.533 58.6958 110.74 59.6749 113.019 59.706C113.056 59.706 113.093 59.706 113.129 59.706C115.387 59.706 117.685 58.6709 119.277 56.9365H119.271ZM113.52 58.1207C113.502 58.1207 113.484 58.1207 113.465 58.1207V58.0679L112.98 58.0959C112.873 58.1021 112.763 58.1052 112.656 58.1052C111.07 58.1052 109.453 57.3685 108.222 56.0879C106.951 54.7638 106.245 53.0231 106.281 51.3074C106.37 47.3381 109.157 44.5406 113.056 44.5033H113.126C116.986 44.5033 119.849 47.3443 119.937 51.2607C119.977 52.9827 119.259 54.7389 117.97 56.0817C116.726 57.3779 115.103 58.1207 113.52 58.1207Z" fill="white"/>
<path d="M72.8059 42.9678C72.7204 42.9678 72.6348 42.9647 72.5462 42.9647C68.2284 42.9647 64.4271 46.7599 64.4118 51.0866C64.4026 53.4303 65.2644 55.6061 66.8381 57.2131C68.4026 58.8108 70.4866 59.6935 72.702 59.6935C77.4659 59.6935 81.0931 56.1283 81.142 51.4068C81.1633 49.1346 80.3322 47.0148 78.8043 45.4451C77.252 43.8505 75.1191 42.9709 72.8029 42.9709L72.8059 42.9678ZM79.5988 52.0098C79.4124 54.7762 76.5461 58.1145 73.2673 58.1145C73.1176 58.1145 72.9648 58.1083 72.8181 58.0959H72.7967H72.7754H72.754H72.7295C72.5828 58.1083 72.4331 58.1176 72.2864 58.1176C70.7219 58.1176 69.0993 57.3468 67.8373 55.9978C66.5569 54.6301 65.8358 52.8459 65.9122 51.2234C66.0986 47.2603 68.8457 44.5561 72.7448 44.4939C72.7815 44.4939 72.8151 44.4939 72.8518 44.4939C74.7555 44.4939 76.5767 45.2897 77.8509 46.6791C79.1313 48.0747 79.7333 49.9179 79.5927 52.0098H79.5988Z" fill="white"/>
<path d="M121.756 69.1583C121.685 69.034 121.536 68.8786 121.239 68.8257C121.199 68.8195 121.154 68.8133 121.114 68.8133C120.726 68.8133 120.494 69.0868 120.42 69.6246C120.414 69.6619 120.411 69.6961 120.405 69.724C120.075 71.2222 119.748 72.7484 119.433 74.2217L119.421 74.287C119.219 73.799 119.005 73.3048 118.761 72.8261C118.721 72.7484 118.678 72.6241 118.639 72.506C118.501 72.1112 118.315 71.5704 117.786 71.5704C117.762 71.5704 117.734 71.5704 117.707 71.5766C117.123 71.6481 116.934 72.2728 116.796 72.7266C116.769 72.8137 116.744 72.8976 116.717 72.9722C116.549 73.4478 116.362 73.9296 116.17 74.43C116.121 74.2839 116.081 74.1409 116.051 73.9979C115.717 72.5029 115.299 70.9736 114.81 69.4474C114.81 69.4381 114.81 69.4256 114.807 69.4132C114.73 68.8382 114.355 68.776 114.199 68.776C114.122 68.776 114.043 68.7884 113.96 68.8195C113.707 68.9065 113.319 69.1614 113.542 69.8763C113.963 71.2409 114.376 72.7298 114.801 74.4331C114.837 74.5823 114.874 74.7346 114.908 74.89C115.036 75.4433 115.167 76.0152 115.412 76.5623C115.418 76.5778 115.424 76.5934 115.43 76.612C115.479 76.7457 115.623 77.1466 116.078 77.1466C116.133 77.1466 116.191 77.1404 116.249 77.128C116.546 77.0565 116.769 76.8265 116.86 76.4908C117.12 75.5614 117.423 74.7315 117.78 73.9637C118.08 74.6445 118.391 75.3376 118.733 76.0028C118.752 76.0401 118.773 76.1489 118.788 76.2235C118.84 76.4877 118.966 77.1062 119.589 77.1062C119.656 77.1062 119.727 77.0969 119.797 77.0814C120.399 76.9415 120.487 76.239 120.542 75.8194C120.552 75.7541 120.558 75.6889 120.567 75.6329C120.857 73.8301 121.273 72.0148 121.676 70.2587L121.731 70.0255C121.74 69.9882 121.753 69.9509 121.768 69.9136C121.829 69.7365 121.93 69.4381 121.768 69.1583H121.756Z" fill="white"/>
<path d="M100.607 69.5157C100.515 69.4069 100.344 69.2733 100.06 69.264H100.054H100.039C99.843 69.264 99.6719 69.3417 99.5527 69.4815C99.3296 69.7426 99.3754 70.0908 99.4152 70.3705C99.4243 70.4451 99.4366 70.5321 99.4366 70.5757C99.4182 71.8097 99.4182 73.0623 99.4213 74.2776C98.4373 72.7608 97.4351 71.216 96.4511 69.6867C96.445 69.6774 96.4389 69.6649 96.4328 69.6525C96.3808 69.553 96.2189 69.2546 95.8552 69.2546C95.8277 69.2546 95.8002 69.2546 95.7697 69.2609C95.6291 69.2795 95.1769 69.3945 95.1769 70.0504C95.1769 70.2617 95.1769 70.4793 95.1769 70.6969V71.5828C95.1769 73.0374 95.1769 74.545 95.186 76.0245C95.186 76.0494 95.183 76.0742 95.1799 76.0991C95.1647 76.2545 95.1341 76.5405 95.3327 76.7674C95.4183 76.8669 95.5802 76.9819 95.8461 76.9819H95.8705C96.1394 76.9757 96.2953 76.8544 96.3778 76.7581C96.5642 76.5374 96.5306 76.267 96.5122 76.1209C96.5122 76.0991 96.5061 76.0774 96.5061 76.0587C96.5306 75.894 96.5244 75.7323 96.5214 75.5862C96.5214 75.5334 96.5183 75.4837 96.5183 75.4308V72.22C97.542 73.8363 98.5351 75.3873 99.3143 76.5933C99.3266 76.6151 99.3388 76.6368 99.3541 76.6617C99.4366 76.814 99.6321 77.1653 100.051 77.1653C100.136 77.1653 100.225 77.1497 100.314 77.1186C100.668 76.9912 100.821 76.6959 100.763 76.2421C100.763 76.2203 100.757 76.1955 100.757 76.1768V75.751C100.766 74.0725 100.775 72.3381 100.757 70.6285C100.757 70.585 100.766 70.5073 100.775 70.4327C100.809 70.1592 100.857 69.7893 100.622 69.5095L100.607 69.5157Z" fill="white"/>
<path d="M108.084 69.3106C107.996 69.3044 107.904 69.3013 107.812 69.3013C105.637 69.3013 104.106 71.3372 104.094 73.1649C104.087 74.1626 104.549 75.2599 105.301 76.0307C105.738 76.4783 106.242 76.786 106.767 76.9384L106.688 77.0192H107.183C107.29 77.0347 107.4 77.044 107.507 77.044C107.602 77.044 107.699 77.0378 107.794 77.0285H107.803C109.802 77.0285 111.501 75.4495 111.513 73.5814C111.528 71.1538 110.184 69.4784 108.087 69.3137L108.084 69.3106ZM107.855 75.6733H107.812L107.773 75.6826C107.699 75.695 107.623 75.7044 107.547 75.7044C107.113 75.7044 106.636 75.4712 106.239 75.0609C105.744 74.5512 105.438 73.8487 105.444 73.2208C105.459 71.8003 106.508 70.6938 107.886 70.6503H107.919C108.414 70.6503 109.047 70.9829 109.53 71.5019C109.988 71.9931 110.236 72.565 110.211 73.0747C110.132 74.6755 109.227 75.6733 107.855 75.6764V75.6733Z" fill="white"/>
<path d="M113.426 48.8953C112.179 48.8269 111.106 50.0236 111.076 51.3042C111.045 52.6035 112.087 53.8593 113.221 53.9183C114.327 53.9743 115.549 52.6501 115.574 51.3633C115.556 50.2567 114.584 48.9606 113.426 48.8984V48.8953ZM113.285 53.3806C112.365 53.3744 111.583 52.4792 111.574 51.4193C111.562 50.378 112.454 49.3212 113.316 49.3553C114.184 49.3864 115.119 50.4774 115.106 51.4472C115.097 52.3611 114.132 53.3868 113.282 53.3806H113.285Z" fill="white"/>
<path d="M112.854 50.3251V52.473C113.227 52.1777 113.545 51.9477 113.844 51.6928C114.04 51.5249 114.147 51.3136 113.902 51.1053C113.582 50.8287 113.316 50.465 112.854 50.322V50.3251Z" fill="white"/>
</svg>