<svg xmlns="http://www.w3.org/2000/svg" width="68" height="68" viewBox="0 0 68 68" fill="none">
  <rect width="68" height="68" rx="34" fill="white"/>
  <path d="M41.9751 36.6062C43.0243 37.768 43.7179 39.2674 43.8646 40.9438C43.931 41.703 43.881 42.4579 43.7162 43.1964L49.7951 46.706C50.8956 47.3414 51.2726 48.7486 50.6372 49.8491C50.0018 50.9496 48.5946 51.3268 47.4941 50.6914L41.3844 47.1639C40.1888 48.2272 38.6842 48.8813 37.0866 49.0211C32.9906 49.3794 29.3683 46.3397 29.01 42.2434C28.6517 38.1479 31.6912 34.5264 35.7873 34.168C36.7378 34.0849 37.6628 34.1846 38.5274 34.438L38.5058 26.8591L27.2331 30.5562L27.4222 45.616C27.4222 48.0627 25.0794 49.9917 22.2391 49.9917C19.3977 49.9917 17.0547 48.0628 17.0547 45.616C17.0547 43.1708 19.3987 41.2403 22.2391 41.2403C22.8233 41.2403 23.3953 41.3284 23.9441 41.4963V23.4232L41.8218 17L41.9751 36.6062ZM42.5457 43.6734C42.8394 42.8161 42.9485 41.9278 42.87 41.0308C42.5597 37.4848 39.4216 34.8523 35.8743 35.1626C32.3274 35.473 29.6942 38.6103 30.0044 42.1563C30.3148 45.7035 33.4529 48.3368 36.9996 48.0265C38.5597 47.89 40.0182 47.1865 41.1062 46.0456C41.1779 45.97 41.2944 45.9594 41.3788 46.0202C41.3872 46.0263 41.3976 46.028 41.4098 46.0258L47.9933 49.8267C48.6163 50.1864 49.413 49.9729 49.7726 49.3499C50.1323 48.7269 49.9189 47.9304 49.2959 47.5707L42.5457 43.6734ZM36.8075 45.6866C34.5583 45.8834 32.5683 44.2128 32.3715 41.9626C32.1747 39.7137 33.8445 37.7241 36.0937 37.5273C38.3439 37.3305 40.3347 38.9998 40.5315 41.2486C40.7283 43.4989 39.0577 45.4898 36.8075 45.6866Z" fill="#024CDA"/>
</svg>