<svg xmlns="http://www.w3.org/2000/svg" width="68" height="68" viewBox="0 0 68 68" fill="none">
  <rect width="68" height="68" rx="34" fill="white"/>
  <path d="M43.9165 38.2499V22.6666C43.9156 22.4538 43.8667 22.244 43.7735 22.0527C43.6803 21.8614 43.5452 21.6935 43.3782 21.5616C43.2136 21.4285 43.0213 21.3339 42.8154 21.2849C42.6094 21.2358 42.3951 21.2336 42.1882 21.2783L29.4382 24.1116C29.1235 24.1826 28.8424 24.3589 28.6414 24.6113C28.4405 24.8638 28.3318 25.1773 28.3332 25.4999V37.3149C27.3661 36.8584 26.277 36.7277 25.2293 36.9425C24.1817 37.1573 23.2319 37.7061 22.5225 38.5064C21.8131 39.3068 21.3824 40.3155 21.2949 41.3814C21.2074 42.4473 21.4679 43.5128 22.0373 44.4181C22.6066 45.3234 23.4542 46.0197 24.4528 46.4025C25.4514 46.7853 26.5472 46.834 27.5759 46.5412C28.6045 46.2485 29.5105 45.6301 30.1579 44.7788C30.8053 43.9276 31.1592 42.8894 31.1665 41.8199C31.1812 41.5746 31.1812 41.3286 31.1665 41.0833V26.6333L41.0832 24.4374V34.4816C40.1156 34.0247 39.0258 33.8942 37.9776 34.1095C36.9294 34.3248 35.9794 34.8744 35.2701 35.6756C34.5609 36.4769 34.1308 37.4867 34.0444 38.5533C33.958 39.6199 34.2199 40.6857 34.7909 41.5907C35.3619 42.4957 36.2111 43.191 37.211 43.5723C38.2108 43.9535 39.3074 44.0001 40.336 43.705C41.3645 43.4098 42.2696 42.789 42.9152 41.9356C43.5609 41.0823 43.9122 40.0425 43.9165 38.9724C43.93 38.7318 43.93 38.4906 43.9165 38.2499ZM26.2649 43.9166C25.8656 43.9165 25.4746 43.8031 25.1372 43.5897C24.7998 43.3762 24.5298 43.0715 24.3586 42.7108C24.1875 42.3501 24.1221 41.9483 24.1701 41.5519C24.2181 41.1556 24.3775 40.781 24.6299 40.4716C24.8822 40.1622 25.2171 39.9307 25.5957 39.804C25.9744 39.6773 26.3811 39.6606 26.7689 39.7558C27.1566 39.851 27.5094 40.0542 27.7863 40.3418C28.0632 40.6294 28.2528 40.9897 28.3332 41.3808C28.3471 41.5221 28.3471 41.6644 28.3332 41.8058C28.3333 42.3583 28.1168 42.8889 27.7301 43.2835C27.3433 43.6782 26.8173 43.9055 26.2649 43.9166ZM39.0149 41.0833C38.6115 41.0864 38.2155 40.9747 37.8733 40.7611C37.5311 40.5475 37.2567 40.241 37.0823 39.8772C36.9078 39.5135 36.8405 39.1077 36.8882 38.7071C36.9359 38.3065 37.0966 37.9278 37.3516 37.6152C37.6066 37.3026 37.9453 37.069 38.3281 36.9418C38.7109 36.8146 39.122 36.7989 39.5134 36.8967C39.9047 36.9945 40.2602 37.2016 40.5382 37.4939C40.8162 37.7862 41.0052 38.1516 41.0832 38.5474C41.0971 38.6887 41.0971 38.8311 41.0832 38.9724C41.0795 39.5311 40.8559 40.0659 40.4609 40.4609C40.0658 40.856 39.5311 41.0795 38.9724 41.0833H39.0149Z" fill="#024CDA"/>
</svg>