<svg xmlns="http://www.w3.org/2000/svg" width="41" height="41" viewBox="0 0 41 41" fill="none">
                <g clip-path="url(#clip0_2114_3602)">
                  <path
                    d="M20.8003 0.315674C9.75467 0.315674 0.800293 9.2702 0.800293 20.3157C0.800293 31.3619 9.75482 40.3157 20.8003 40.3157C31.8467 40.3157 40.8003 31.3619 40.8003 20.3157C40.8003 9.27099 31.8467 0.316768 20.8 0.316768L20.8003 0.315674ZM29.972 29.1616C29.6137 29.7491 28.8447 29.9354 28.2572 29.5747C23.5614 26.7065 17.6501 26.0568 10.6884 27.6474C10.366 27.7208 10.0277 27.6632 9.74782 27.4871C9.46793 27.3111 9.26941 27.0312 9.19592 26.7088C9.15932 26.5492 9.15455 26.384 9.18187 26.2226C9.20919 26.0612 9.26808 25.9067 9.35515 25.7681C9.44223 25.6294 9.55579 25.5093 9.68933 25.4146C9.82288 25.3199 9.97378 25.2525 10.1334 25.2161C17.7522 23.4755 24.287 24.2249 29.5589 27.4468C30.1464 27.8074 30.3326 28.5741 29.972 29.1616ZM32.42 23.7158C31.9684 24.4494 31.0084 24.6811 30.2753 24.2297C24.8994 20.9254 16.7045 19.9683 10.3459 21.8985C9.52123 22.1475 8.65029 21.6829 8.39998 20.8596C8.15154 20.0349 8.61654 19.1655 9.43982 18.9149C16.7031 16.7108 25.7328 17.7785 31.9065 21.5722C32.6397 22.0238 32.8714 22.9836 32.42 23.7158ZM32.6301 18.045C26.1842 14.2163 15.5494 13.8641 9.39514 15.7322C8.40686 16.0319 7.3617 15.474 7.06232 14.4857C6.76279 13.4969 7.32014 12.4525 8.3092 12.1521C15.3737 10.0074 27.1181 10.4219 34.5392 14.8275C35.4301 15.355 35.7214 16.5032 35.1936 17.3908C34.6683 18.2799 33.517 18.5729 32.6311 18.045H32.6301Z"
                    fill="#1ED760" />
                </g>
                <defs>
                  <clipPath id="clip0_2114_3602">
                    <rect width="40" height="40" fill="white" transform="translate(0.800293 0.315674)" />
                  </clipPath>
                </defs>
              </svg>