<svg width="150" height="150" viewBox="0 0 150 150" fill="none" xmlns="http://www.w3.org/2000/svg">
<path opacity="0.07" d="M150 75C150 116.421 116.421 150 75 150C33.5786 150 0 116.421 0 75C0 33.5786 33.5786 0 75 0C116.421 0 150 33.5786 150 75Z" fill="#024CDA"/>
<path opacity="0.1" d="M136.555 74.9999C136.555 108.996 108.996 136.555 74.9999 136.555C41.0042 136.555 13.4453 108.996 13.4453 74.9999C13.4453 41.0042 41.0042 13.4453 74.9999 13.4453C108.996 13.4453 136.555 41.0042 136.555 74.9999Z" fill="#024CDA"/>
<path d="M126.978 74.9999C126.978 103.707 103.706 126.979 74.999 126.979C46.2915 126.979 23.0195 103.707 23.0195 74.9999C23.0195 46.2925 46.2915 23.0205 74.999 23.0205C103.706 23.0205 126.978 46.2925 126.978 74.9999Z" fill="#024CDA"/>
<path d="M75.3744 96.9588C87.7007 96.9588 97.6931 86.9663 97.6931 74.64C97.6931 62.3137 87.7007 52.3213 75.3744 52.3213C63.0481 52.3213 53.0557 62.3137 53.0557 74.64C53.0557 86.9663 63.0481 96.9588 75.3744 96.9588Z" stroke="white" stroke-width="3"/>
<path fill-rule="evenodd" clip-rule="evenodd" d="M87.2822 65.3597C88.0521 66.1296 88.0521 67.3778 87.2822 68.1477L72.8248 82.6052C72.4551 82.9749 71.9536 83.1826 71.4307 83.1826C70.9079 83.1826 70.4064 82.9749 70.0367 82.6052L63.4651 76.0336C62.6952 75.2637 62.6952 74.0155 63.4651 73.2455C64.235 72.4756 65.4833 72.4756 66.2532 73.2455L71.4307 78.4231L84.4942 65.3597C85.2641 64.5897 86.5123 64.5897 87.2822 65.3597Z" fill="white"/>
</svg>
