<svg xmlns="http://www.w3.org/2000/svg" width="58" height="41" viewBox="0 0 58 41" fill="none">
                <g clip-path="url(#clip0_2114_3606)">
                  <path
                    d="M56.4384 6.55456C56.1121 5.34869 55.4756 4.24933 54.5923 3.36596C53.7089 2.48259 52.6096 1.84603 51.4037 1.51967C46.9891 0.315674 29.2215 0.315674 29.2215 0.315674C29.2215 0.315674 11.4531 0.352118 7.0384 1.55612C5.83251 1.8825 4.73316 2.51909 3.84983 3.4025C2.96649 4.28591 2.33 5.38531 2.00373 6.59123C0.668395 14.4352 0.150395 26.3877 2.0404 33.9179C2.3667 35.1238 3.00321 36.2231 3.88654 37.1065C4.76987 37.9899 5.8692 38.6264 7.07506 38.9528C11.4897 40.1568 29.2577 40.1568 29.2577 40.1568C29.2577 40.1568 47.0255 40.1568 51.44 38.9528C52.6459 38.6265 53.7452 37.9899 54.6286 37.1065C55.512 36.2232 56.1485 35.1238 56.4748 33.9179C57.8833 26.0628 58.3173 14.1177 56.4384 6.55456Z"
                    fill="#FF0000" />
                  <path d="M23.566 28.7734L38.3056 20.2361L23.566 11.6987V28.7734Z" fill="white" />
                </g>
                <defs>
                  <clipPath id="clip0_2114_3606">
                    <rect width="56.9" height="40" fill="white" transform="translate(0.800293 0.315674)" />
                  </clipPath>
                </defs>
              </svg>